<?xml version="1.0" encoding="UTF-8"?>
<svg xmlns="http://www.w3.org/2000/svg" xmlns:xlink="http://www.w3.org/1999/xlink" width="375pt" height="374.999991pt" viewBox="0 0 375 374.999991" version="1.2">
<defs>
<clipPath id="clip1">
  <path d="M 0 0.746094 L 373.195312 0.746094 L 373.195312 374.246094 L 0 374.246094 Z M 0 0.746094 "/>
</clipPath>
</defs>
<g id="surface1">
<g clip-path="url(#clip1)" clip-rule="nonzero">
<path style=" stroke:none;fill-rule:nonzero;fill:rgb(74.899292%,12.548828%,62.348938%);fill-opacity:1;" d="M -0.304688 285.929688 L 88.007812 374.246094 L 186.445312 275.8125 L 284.878906 374.246094 L 373.195312 285.929688 L 274.761719 187.496094 L 373.195312 89.0625 L 284.878906 0.746094 L 186.445312 99.179688 L 88.007812 0.746094 L -0.300781 89.0625 L 65.230469 154.597656 C 92.996094 182.359375 138.167969 182.359375 165.929688 154.597656 L 186.445312 134.085938 L 239.855469 187.496094 L 186.445312 240.90625 L 165.929688 220.394531 C 152.484375 206.945312 134.601562 199.535156 115.582031 199.535156 C 96.5625 199.535156 78.679688 206.945312 65.230469 220.394531 Z M 168.992188 116.632812 L 148.480469 137.148438 C 130.339844 155.285156 100.824219 155.285156 82.683594 137.148438 L 34.601562 89.0625 L 88.007812 35.652344 Z M 88.007812 339.335938 L 34.605469 285.929688 L 82.683594 237.847656 C 91.472656 229.0625 103.15625 224.21875 115.582031 224.21875 C 128.007812 224.21875 139.691406 229.0625 148.480469 237.847656 L 168.988281 258.359375 Z M 284.878906 339.335938 L 203.898438 258.359375 L 257.304688 204.949219 L 338.285156 285.929688 Z M 257.304688 170.042969 L 203.898438 116.632812 L 284.878906 35.652344 L 338.285156 89.0625 Z M 257.304688 170.042969 "/>
</g>
</g>
</svg>
